<svg xmlns="http://www.w3.org/2000/svg" xmlns:xlink="http://www.w3.org/1999/xlink" aria-hidden="true" role="img" class="iconify iconify--logos" width="35.93" height="32" preserveAspectRatio="xMidYMid meet" viewBox="0 0 256 228"><path fill="#00D8FF" d="M210.483 73.824a171.49 171.49 0 0 0-8.24-2.597c.465-1.9.893-3.777 1.273-5.621c6.238-30.281 2.16-54.676-11.769-62.708c-13.355-7.7-35.196.329-57.254 19.526a171.23 171.23 0 0 0-6.375 5.848a155.866 155.866 0 0 0-4.241-3.917C100.759 3.829 77.587-4.822 63.673 3.233C50.33 10.957 46.379 33.89 51.986 62.588a170.974 170.974 0 0 0 1.892 8.48c-3.28.932-6.445 1.924-9.474 2.98C17.309 83.498 0 98.307 0 113.668c0 15.865 18.582 31.778 46.812 41.427a145.52 145.52 0 0 0 6.921 2.165a167.467 167.467 0 0 0-2.01 9.138c-5.354 28.2-1.173 50.591 12.134 58.266c13.744 7.926 36.812-.22 59.273-19.855a145.567 145.567 0 0 0 5.342-4.923a168.064 168.064 0 0 0 6.92 6.314c21.758 18.722 43.246 26.282 56.54 18.586c13.731-7.949 18.194-32.003 12.4-61.268a145.016 145.016 0 0 0-1.535-6.842c1.62-.48 3.21-.974 4.76-1.488c29.348-9.723 48.443-25.443 48.443-41.52c0-15.417-17.868-30.326-45.517-39.844Zm-6.365 70.984c-1.4.463-2.836.91-4.3 1.345c-3.24-10.257-7.612-21.163-12.963-32.432c5.106-11 9.31-21.767 12.459-31.957a145.95 145.95 0 0 1 7.535 2.396c22.442 8.004 39.647 21.178 39.647 31.508c0 11.032-18.286 24.786-42.378 32.14Zm-11.741-50.088c-3.045 6.651-6.495 13.423-10.327 20.223c-3.72 6.602-7.704 12.963-11.864 19.022a176.983 176.983 0 0 1-26.58 2.155c-9.197 0-18.255-.68-27.032-1.949c-4.112-5.98-8.08-12.262-11.764-18.832c-3.802-6.784-7.214-13.535-10.203-20.168c2.935-6.64 6.342-13.413 10.166-20.238c3.709-6.623 7.664-12.934 11.742-18.921c8.78-1.27 17.833-1.944 27.012-1.944c9.23 0 18.332.684 27.12 1.963c4.052 5.973 7.997 12.269 11.685 18.879c3.82 6.843 7.25 13.644 10.317 20.303c-.063-.157-.124-.316-.185-.476l-.087.283Zm16.287-42.72c-.07.322-.139.647-.209.973c-3.235-10.285-7.657-21.224-13.039-32.54c5.139-11.027 9.369-21.812 12.538-31.996c2.588.843 5.11 1.73 7.542 2.668c22.633 8.72 39.826 21.925 39.826 31.675c0 10.547-18.457 24.465-42.699 32.174l-.001-.002c-1.315.447-2.637.886-3.958 1.312v-.264ZM128.027 19.59c9.63-8.63 19.413-15.285 28.542-19.406c7.752-3.497 14.904-4.888 20.706-1.546c11.723 6.767 15.429 29.16 9.632 57.28c-.362 1.755-.763 3.544-1.2 5.357c-10.536-2.449-21.83-4.157-33.668-5.073c-6.91-9.519-14.248-18.443-21.786-26.596a191.91 191.91 0 0 1 6.774-6.236v-3.78Zm-34.762 34.68c4.026 5.95 7.946 12.206 11.649 18.736c3.723 6.57 7.101 13.185 10.15 19.762c-6.993 1.587-13.653 3.462-19.915 5.594c-2.884-9.282-5.024-18.52-6.419-27.517a155.156 155.156 0 0 1 4.535-16.575Zm-3.75 79.303c6.393 2.192 13.202 4.115 20.348 5.733c-3.104 6.681-6.527 13.383-10.28 20.008c-3.657 6.455-7.47 12.712-11.397 18.637c-1.472-9.143-2.269-18.729-2.269-28.55c0-5.346.223-10.648.653-15.879l2.945.051Zm-10.87 15.88c0 10.308.859 20.455 2.468 30.128c-2.066-.645-4.094-1.322-6.074-2.036c-22.827-8.231-40.66-21.653-40.66-32.23c0-10.886 18.592-24.853 42.682-33.062a195.862 195.862 0 0 1 8.428-2.661c3.357 10.317 7.825 21.291 13.224 32.6c-5.165 10.963-9.501 21.8-12.76 31.982c-2.503-.783-4.94-1.614-7.308-2.498v-22.223Zm-23.33-56.59c-5.68-1.665-11.134-3.542-16.303-5.587c-22.35-8.82-38.67-21.952-38.67-32.25c0-10.696 17.388-24.648 41.43-32.805a173.72 173.72 0 0 1 8.802-2.768c3.275 10.17 7.674 21.036 13.022 32.294c-5.116 11.004-9.353 21.752-12.437 31.952a147.69 147.69 0 0 1 4.156 9.164Zm40.795-49.23c-6.55 1.506-12.798 3.318-18.694 5.384c-2.945-9.387-5.117-18.687-6.537-27.714a148.66 148.66 0 0 1 11.581-16.672c4.023 5.959 7.924 12.226 11.619 18.773c1.08 1.904 2.13 3.822 3.153 5.755l-1.122 14.474Zm-1.257-11.832c-3.736-6.621-7.74-12.934-11.88-18.92a167.71 167.71 0 0 1 27.044-1.953c9.252 0 18.359.685 27.138 1.96a188.65 188.65 0 0 1 11.74 18.863a183.87 183.87 0 0 1 10.297 20.156c-3.043 6.653-6.483 13.417-10.308 20.212c-3.722 6.606-7.711 12.978-11.872 19.042a180.27 180.27 0 0 1-26.621 2.152c-9.141 0-18.173-.679-26.894-1.941c-4.13-5.989-8.1-12.269-11.773-18.825c-3.77-6.73-7.195-13.511-10.22-20.268c2.97-6.69 6.348-13.433 10.103-20.134l12.236-20.344ZM63.67 10.51c5.8-3.35 13.004-1.95 20.794 1.573c9.135 4.132 18.92 10.799 28.548 19.43a194.64 194.64 0 0 0-5.15 4.744c-7.507 7.18-14.84 15.02-21.794 23.434c-11.924.907-23.312 2.627-33.902 5.095c-.471-1.943-.902-3.87-1.29-5.773c-5.259-25.808-1.522-45.695 12.794-48.503Zm-4.65 91.518c2.952-6.672 6.36-13.477 10.204-20.331c3.722-6.634 7.676-12.936 11.755-18.887a176.14 176.14 0 0 1 27.048-1.968c9.231 0 18.336.685 27.12 1.963a182.5 182.5 0 0 1 11.684 18.877a183.9 183.9 0 0 1 10.315 20.31c-3.053 6.66-6.51 13.455-10.355 20.27c-3.72 6.597-7.704 12.958-11.863 19.017a176.98 176.98 0 0 1-26.58 2.155c-9.197 0-18.255-.68-27.032-1.949c-4.112-5.98-8.08-12.262-11.764-18.832c-3.802-6.784-7.214-13.536-10.203-20.168l-.329.543Zm67.26 71.784c-9.63 8.63-19.413 15.286-28.542 19.406c-7.752 3.497-14.904 4.887-20.706 1.546c-11.722-6.766-15.428-29.159-9.632-57.28c.362-1.755.763-3.543 1.2-5.356c10.536 2.448 21.83 4.156 33.668 5.073c6.91 9.518 14.248 18.443 21.785 26.596a191.91 191.91 0 0 1-6.773 6.235v3.78Zm36.5-5.54c5.68 25.808 1.523 45.694-12.793 48.502c-5.8 3.35-13.004 1.95-20.793-1.573c-9.136-4.132-18.921-10.798-28.549-19.43a194.647 194.647 0 0 0 5.15-4.743c7.508-7.18 14.84-15.021 21.794-23.435c11.924-.907 23.312-2.626 33.901-5.094a170.93 170.93 0 0 1 1.29 5.773Z"/><path fill="#53C1DE" d="M128 94.868c10.36 0 18.8 8.44 18.8 18.8s-8.44 18.8-18.8 18.8s-18.8-8.44-18.8-18.8s8.44-18.8 18.8-18.8Z"/></svg>