<svg xmlns="http://www.w3.org/2000/svg" xmlns:xlink="http://www.w3.org/1999/xlink" aria-hidden="true" role="img" class="iconify iconify--logos" width="31.88" height="32" preserveAspectRatio="xMidYMid meet" viewBox="0 0 256 257"><defs><linearGradient id="IconifyId1813088fe1fbc01fb466" x1="-.828%" x2="57.636%" y1="7.652%" y2="78.411%"><stop offset="0%" stop-color="#41D1FF"></stop><stop offset="100%" stop-color="#BD34FE"></stop></linearGradient><linearGradient id="IconifyId1813088fe1fbc01fb467" x1="43.376%" x2="50.316%" y1="2.242%" y2="89.03%"><stop offset="0%" stop-color="#FFEA83"></stop><stop offset="8.333%" stop-color="#FFDD35"></stop><stop offset="100%" stop-color="#FFA800"></stop></linearGradient></defs><path fill="url(#IconifyId1813088fe1fbc01fb466)" d="M255.153 37.938L134.897 252.976c-2.483 4.144-8.862 4.276-11.557.470L.823 37.938c-2.137-3.585-.290-8.387 4.063-9.439l119.203-19.236c3.726-.59 7.470.029 10.896 1.959l104.798 60.181c4.411 2.551 5.163 8.743 1.370 12.267z"></path><path fill="url(#IconifyId1813088fe1fbc01fb467)" d="M185.432.063L96.44 17.557a6.696 6.696 0 0 0-5.847 6.605v141.115a6.696 6.696 0 0 0 10.577 5.977l86.5-50.783a6.696 6.696 0 0 0 3.491-5.977V6.668a6.696 6.696 0 0 0-10.577-5.977z"></path></svg>